Coordinates
version=1
nRows=18
nColumns=28
inDegrees=yes

Units are S.I. units (second, meters, Newtons, ...)
If the header above contains a line with 'inDegrees', this indicates whether rotational values are in degrees (yes) or radians (no).

endheader
time	pelvis_tilt	pelvis_list	pelvis_rotation	pelvis_tx	pelvis_ty	pelvis_tz	hip_flexion_r	hip_adduction_r	hip_rotation_r	knee_angle_r	knee_rotation_r	knee_adduction_r	ankle_angle_r	subtalar_angle_r	mtp_angle_r	hip_flexion_l	hip_adduction_l	hip_rotation_l	knee_angle_l	knee_rotation_l	knee_adduction_l	ankle_angle_l	subtalar_angle_l	mtp_angle_l	lumbar_extension	lumbar_bending	lumbar_rotation
      0.28000000	      5.47271829	      9.56759435	    -98.84653603	     -0.20803644	      0.93575238	     -0.56606021	     15.11639724	    -10.40154464	     12.81455015	    -53.84972392	      0.29862914	     13.60839501	    -12.48473534	    -14.79213858	     -3.88858955	     38.87221264	      2.52276127	      2.70172892	    -27.28707238	      7.21049176	     -5.43213384	      6.18837951	    -13.77190149	     -4.55574999	      0.00000000	      0.00000000	      0.00000000
      0.29000000	      6.76786409	      8.87549968	    -98.46511562	     -0.20743939	      0.93672966	     -0.55283125	     16.59538472	    -12.18641019	     12.39552165	    -56.89386296	      1.89841009	     13.70482059	    -14.64909646	    -17.58462675	     -4.64828911	     37.54649346	      4.51447104	      0.67318051	    -27.20615807	      5.90448918	     -4.15864926	      7.19253163	    -13.33486043	     -4.98901293	      0.00000000	      0.00000000	      0.00000000
      0.30000000	      7.68654036	      8.39211189	    -97.92832625	     -0.20711228	      0.93777875	     -0.54084812	     18.23862432	    -13.38480156	     12.05020356	    -59.73035042	      3.24640949	     13.76627958	    -16.39246503	    -20.75761351	     -6.04118502	     36.58593273	      6.02580762	     -0.73822845	    -27.48233366	      5.32700566	     -3.29043613	      8.27765941	    -12.35327138	     -5.39105233	      0.00000000	      0.00000000	      0.00000000
      0.31000000	      8.35600800	      8.12544660	    -97.03704007	     -0.20683797	      0.93956651	     -0.52865984	     19.76602166	    -14.18864839	     11.07056077	    -62.27954383	      4.91511469	     13.41682845	    -16.56865533	    -24.35311335	    -15.87775623	     35.59958432	      7.26847262	     -0.98637208	    -27.46934750	      4.91270493	     -3.05870434	      8.77318425	    -12.04684383	     -6.21705069	      0.00000000	      0.00000000	      0.00000000
      0.32000000	      9.11011319	      7.93886222	    -96.38787861	     -0.20647942	      0.94110235	     -0.51722523	     21.59702650	    -15.18410027	     10.93060941	    -64.76134398	      5.30656675	     13.52812443	    -15.54848816	    -26.11537186	    -15.84852375	     34.67338988	      8.43394048	     -0.35824962	    -27.35986820	      5.23223986	     -3.29759885	      9.30761683	    -11.81634622	     -6.27552715	      0.00000000	      0.00000000	      0.00000000
      0.33000000	      9.75954767	      7.65462169	    -95.67785353	     -0.20543326	      0.94270226	     -0.50550256	     23.25540519	    -16.30182895	     10.74357701	    -67.00361437	      4.99549117	     13.86070897	    -14.74594773	    -27.53464877	    -15.63402434	     33.61807141	      9.55728772	      0.31116792	    -27.30468507	      5.50151114	     -3.54680787	      9.93141597	    -11.70517073	     -6.36083795	      0.00000000	      0.00000000	      0.00000000
      0.34000000	     10.22332942	      7.36368513	    -95.09261988	     -0.20498357	      0.94471931	     -0.49379589	     24.84003135	    -17.05133991	     10.48847250	    -68.92777101	      4.59678588	     13.87741168	    -13.96272981	    -28.47806119	    -15.43491434	     32.43251578	     10.37429480	      0.78995849	    -27.10684357	      5.45921930	     -3.70334594	     10.63842300	    -11.69393469	     -6.41874316	      0.00000000	      0.00000000	      0.00000000
      0.35000000	     10.59685159	      7.10950316	    -94.42999567	     -0.20459859	      0.94688947	     -0.48174140	     26.34084661	    -17.64058770	     10.28893487	    -70.54689452	      3.99909342	     13.86922607	    -13.21389973	    -29.02118550	    -15.17464765	     31.17552924	     11.12001261	      1.32576653	    -26.82748320	      5.49379205	     -3.81046972	     11.21652218	    -11.49094418	     -6.48560574	      0.00000000	      0.00000000	      0.00000000
      0.36000000	     10.72849363	      7.02677514	    -93.42392817	     -0.20378199	      0.94893808	     -0.46946601	     27.67745132	    -18.11270729	      9.50488828	    -71.66095696	      3.60646107	     13.64423097	    -12.02087542	    -28.97404248	    -12.97313685	     30.01676895	     11.76611125	      2.52849514	    -26.57810545	      6.18183486	     -4.00777073	     12.18017133	    -10.21321059	     -6.62772774	      0.00000000	      0.00000000	      0.00000000
      0.37000000	     11.18988358	      6.54955487	    -92.81963244	     -0.20371246	      0.95134411	     -0.45733248	     28.77160070	    -18.82392596	      9.47457502	    -72.47588491	      3.13060326	     13.76704984	    -10.60433363	    -28.66474106	     -8.83639840	     28.36095890	     12.59375927	      3.09905246	    -26.02159310	      6.40934602	     -3.99676190	     12.61631768	     -9.88964064	     -6.26053640	      0.00000000	      0.00000000	      0.00000000
      0.38000000	     11.49937499	      6.39543691	    -92.20317462	     -0.20351978	      0.95327117	     -0.44508375	     30.07453969	    -19.30276041	      9.65319754	    -72.83893202	      3.14250339	     14.03799727	    -10.11487989	    -29.01266112	     -8.75037522	     26.97963026	     13.26716344	      3.95931759	    -25.41226828	      6.73324061	     -4.02740358	     13.08037639	     -9.73336105	     -6.30308755	      0.00000000	      0.00000000	      0.00000000
      0.39000000	     11.66641731	      6.07496261	    -91.45557521	     -0.20313910	      0.95574872	     -0.43260843	     30.96667192	    -19.72824775	      8.67748161	    -72.78813131	      3.92851357	     13.45115394	     -9.37070270	    -29.13751908	     -8.75326104	     25.31770462	     13.91301723	      4.76659403	    -24.69561749	      6.88561910	     -3.78839649	     13.49566322	     -9.34076650	     -6.32797516	      0.00000000	      0.00000000	      0.00000000
      0.40000000	     11.97271037	      5.99510911	    -90.85844322	     -0.20339326	      0.95724134	     -0.42099324	     32.08338122	    -19.95447209	     10.03222257	    -72.35417938	      4.26804404	     14.63290247	     -8.20608516	    -29.71115595	     -8.97371635	     24.11884133	     14.49223774	      5.44837670	    -24.21731232	      7.07742767	     -3.74361314	     13.84084109	     -9.11497343	     -6.34022631	      0.00000000	      0.00000000	      0.00000000
      0.41000000	     12.46270599	      5.90563489	    -90.31340871	     -0.20310679	      0.95834577	     -0.40915453	     33.62930528	    -20.70311828	     10.09675206	    -72.23978877	      4.02244711	     14.46352395	     -7.31383825	    -27.65628848	     -8.65145788	     22.87486952	     15.34114755	      6.05883205	    -23.68206967	      7.21685977	     -3.51034203	     14.35202347	     -8.86504319	     -6.34013010	      0.00000000	      0.00000000	      0.00000000
      0.42000000	     12.56855710	      5.88485009	    -89.70660064	     -0.20314424	      0.95974160	     -0.39756984	     34.70197832	    -20.84680625	     10.39405867	    -71.30005076	      4.51803415	     14.77312754	     -6.26400412	    -27.67310024	     -8.54015750	     21.74018598	     15.68765839	      6.67501580	    -23.28464079	      7.14440937	     -3.38855760	     14.77102179	     -8.65526921	     -6.34323373	      0.00000000	      0.00000000	      0.00000000
      0.43000000	     12.53755537	      5.73194296	    -89.19543593	     -0.20320235	      0.96142520	     -0.38576692	     35.48202429	    -20.72376862	     10.63853206	    -70.10593384	      4.50872197	     14.96247842	     -5.10280916	    -26.93039831	     -8.46767225	     20.42767462	     15.82821633	      7.02410738	    -22.83641029	      6.97253745	     -3.20784348	     15.29816273	     -8.25565766	     -6.33627166	      0.00000000	      0.00000000	      0.00000000
      0.44000000	     12.58199541	      5.50875975	    -88.72663520	     -0.20361291	      0.96311058	     -0.37401223	     36.14773785	    -20.70106379	     10.82784931	    -68.64824781	      5.02249227	     15.02799299	     -4.11083488	    -25.93918230	     -8.37231559	     18.94555268	     15.96578051	      7.61507700	    -22.16264957	      6.93226888	     -3.12078679	     15.62889023	     -8.02821229	     -6.28232796	      0.00000000	      0.00000000	      0.00000000
      0.45000000	     12.52441493	      5.38705279	    -88.33744032	     -0.20408402	      0.96447243	     -0.36251600	     36.82284488	    -20.44488712	     11.33397593	    -66.91810381	      4.83896437	     15.25350848	     -3.20475130	    -25.07257020	     -8.28725033	     17.74268473	     15.94691402	      7.99647470	    -21.80481108	      6.88612973	     -3.04541678	     16.09630111	     -7.56677879	     -6.20475593	      0.00000000	      0.00000000	      0.00000000
